<svg width="35" height="26" viewBox="0 0 35 26" fill="none" xmlns="http://www.w3.org/2000/svg">
<g clip-path="url(#clip0_5110_587)">
<g clip-path="url(#clip1_5110_587)">
<path d="M0 3.05581V2.16667C0 1.59203 0.230468 1.04093 0.640704 0.634602C1.05094 0.228273 1.60734 0 2.1875 0L32.8125 0C33.3927 0 33.9491 0.228273 34.3593 0.634602C34.7695 1.04093 35 1.59203 35 2.16667V3.05581L17.5 13.8891L0 3.05581ZM18.0797 16.0856C17.9058 16.1931 17.705 16.2501 17.5 16.2501C17.295 16.2501 17.0942 16.1931 16.9203 16.0856L0 5.61085V23.8333C0 24.408 0.230468 24.9591 0.640704 25.3654C1.05094 25.7717 1.60734 26 2.1875 26H32.8125C33.3927 26 33.9491 25.7717 34.3593 25.3654C34.7695 24.9591 35 24.408 35 23.8333V5.61085L18.0797 16.0856Z" fill="#8A9B6E"/>
</g>
</g>
<defs>
<clipPath id="clip0_5110_587">
<rect width="35" height="26" fill="white"/>
</clipPath>
<clipPath id="clip1_5110_587">
<rect width="35" height="26" fill="white"/>
</clipPath>
</defs>
</svg>
