<svg width="30" height="28" viewBox="0 0 30 28" fill="none" xmlns="http://www.w3.org/2000/svg">
<g clip-path="url(#clip0_5110_585)">
<path d="M8.92419 0.383911C4.23682 0.383911 0.422852 3.94856 0.422852 8.32804V19.6741C0.422852 24.053 4.23907 27.6161 8.92761 27.6161H21.0743C25.7623 27.6161 29.5768 24.0514 29.5768 19.6719V8.32485C29.5768 3.94646 25.7606 0.383911 21.0721 0.383911H8.92419ZM23.746 4.74105C24.3897 4.74105 24.9122 5.22905 24.9122 5.83034C24.9122 6.43163 24.3897 6.91963 23.746 6.91963C23.1023 6.91963 22.5799 6.43163 22.5799 5.83034C22.5799 5.22905 23.1023 4.74105 23.746 4.74105ZM14.9998 6.91963C19.1805 6.91963 22.5799 10.0949 22.5799 14C22.5799 17.9051 19.1799 21.0803 14.9998 21.0803C10.8192 21.0803 7.4198 17.9045 7.4198 14C7.4198 10.0954 10.8192 6.91963 14.9998 6.91963ZM14.9998 9.0982C12.1013 9.0982 9.75212 11.2926 9.75212 14C9.75212 16.7074 12.1013 18.9018 14.9998 18.9018C17.8983 18.9018 20.2475 16.7074 20.2475 14C20.2475 11.2926 17.8983 9.0982 14.9998 9.0982Z" fill="#8A9B6E"/>
</g>
<defs>
<clipPath id="clip0_5110_585">
<rect width="30" height="28" fill="white"/>
</clipPath>
</defs>
</svg>
