<svg width="28" height="28" viewBox="0 0 28 28" fill="none" xmlns="http://www.w3.org/2000/svg">
<path fill-rule="evenodd" clip-rule="evenodd" d="M3.11111 28H24.8889C26.6071 28 28 26.6071 28 24.8889V3.11111C28 1.39289 26.6071 0 24.8889 0H3.11111C1.39289 0 0 1.39289 0 3.11111V24.8889C0 26.6071 1.39289 28 3.11111 28Z" fill="#8A9B6E"/>
<path fill-rule="evenodd" clip-rule="evenodd" d="M24.1109 24.1111H19.9559V17.0342C19.9559 15.0939 19.2186 14.0096 17.6828 14.0096C16.0121 14.0096 15.1393 15.138 15.1393 17.0342V24.1111H11.135V10.6297H15.1393V12.4456C15.1393 12.4456 16.3432 10.2178 19.2041 10.2178C22.0637 10.2178 24.1109 11.964 24.1109 15.5755V24.1111ZM6.35786 8.86437C4.99392 8.86437 3.88867 7.75045 3.88867 6.37664C3.88867 5.00283 4.99392 3.88892 6.35786 3.88892C7.72181 3.88892 8.8264 5.00283 8.8264 6.37664C8.8264 7.75045 7.72181 8.86437 6.35786 8.86437ZM4.29022 24.1111H8.46566V10.6297H4.29022V24.1111Z" fill="#F0F1EE"/>
</svg>
